<?xml version="1.0" encoding="utf-8" ?><svg xmlns="http://www.w3.org/2000/svg" xmlns:xlink="http://www.w3.org/1999/xlink" width="100" height="116" viewBox="0 0 100 116"><path fill="#101415" transform="matrix(0.160772 0 0 0.160888 -1.52588e-05 0)" d="M294.027 126.633C425.697 122.238 536 225.394 540.393 357.036C544.786 488.679 441.606 598.957 309.936 603.346C178.27 607.735 67.9742 504.581 63.5811 372.942C59.188 241.303 162.361 131.028 294.027 126.633Z"/><path fill="#69696A" transform="matrix(0.160772 0 0 0.160888 -1.52588e-05 0)" d="M288.724 223.478C366.896 216.167 436.188 273.613 443.473 351.77C450.758 429.928 393.277 499.186 315.101 506.443C236.962 513.696 167.731 456.261 160.449 378.141C153.167 300.021 210.591 230.785 288.724 223.478Z"/><path fill="#A1A0A0" transform="matrix(0.160772 0 0 0.160888 -1.52588e-05 0)" d="M298.339 224.921C375.695 222.902 440.044 283.958 442.072 361.298C444.099 438.638 383.038 502.98 305.682 505.016C228.314 507.051 163.947 445.991 161.919 368.64C159.891 291.288 220.971 226.941 298.339 224.921Z"/><path fill="#101415" transform="matrix(0.160772 0 0 0.160888 -1.52588e-05 0)" d="M293.673 245.364C359.787 240.758 417.111 290.625 421.688 356.728C426.265 422.83 376.361 480.119 310.242 484.665C244.167 489.207 186.912 439.353 182.338 373.293C177.764 307.234 227.602 249.968 293.673 245.364Z"/><path fill="#1671D8" transform="matrix(0.160772 0 0 0.160888 -1.52588e-05 0)" d="M301.988 257.298C304.357 259.878 307.311 266.11 309.206 269.401L326.138 298.773L395.663 419.046C364.584 419.52 333.431 419.072 302.344 419.067L243.045 419.072C231.504 419.079 219.941 419.24 208.403 419.016C212.456 412.607 216.116 405.896 219.91 399.33L239.715 365.041L301.988 257.298Z"/><path fill="#FEFEFE" transform="matrix(0.160772 0 0 0.160888 -1.52588e-05 0)" d="M293.727 349.782L294.45 349.51L295.148 349.861C299.431 350.099 304.064 349.476 308.258 350.248C308.886 351.476 309.009 352.516 309.093 353.877C308.989 354.858 308.946 355.519 308.341 356.32C307.768 356.627 307.365 356.704 306.735 356.777C305.937 356.869 305.616 357.02 304.986 357.502L304.878 358.121C305.302 358.648 305.696 359.067 305.931 359.71C305.008 360.221 303.536 360.003 302.493 359.986L302.076 359.637C302.421 359.028 302.792 358.468 303.193 357.896L302.98 357.403C302.139 357.159 301.387 357.038 300.514 356.97C300.06 356.602 300.012 356.652 299.822 356.056L299.676 357.197L299.276 357.268L299 357.008L294.875 356.963L294.688 356.767C294.627 356.274 294.525 355.963 294.292 355.524C293.356 356.377 292.713 357.01 291.362 356.94C290.685 356.906 290.025 356.751 289.369 356.587C289.075 354.933 289.049 353.279 288.998 351.604C289.168 351.323 289.383 350.907 289.63 350.673C290.191 350.14 290.726 350.032 291.455 349.97L293.727 349.782Z"/><path fill="#107CEB" transform="matrix(0.160772 0 0 0.160888 -1.52588e-05 0)" d="M293.727 349.782L294.45 349.51L295.148 349.861L295.603 351.258C296.052 352.598 296.266 354.178 295.683 355.521C295.467 356.018 295.032 356.462 294.875 356.963L294.688 356.767C294.627 356.274 294.525 355.963 294.292 355.524C293.356 356.377 292.713 357.01 291.362 356.94C290.685 356.906 290.025 356.751 289.369 356.587C289.075 354.933 289.049 353.279 288.998 351.604C289.168 351.323 289.383 350.907 289.63 350.673C290.191 350.14 290.726 350.032 291.455 349.97L293.727 349.782Z"/><path fill="#FEFEFE" transform="matrix(0.160772 0 0 0.160888 -1.52588e-05 0)" d="M293.727 349.782C293.934 350.384 294.156 350.851 294.06 351.497C293.544 351.922 293.81 351.87 293.226 351.807C292.533 351.732 291.887 351.477 291.236 351.244C290.637 352.24 290.949 354.636 291.161 355.751C291.568 355.952 291.595 356.085 292.053 355.929C292.582 355.749 293.029 355.501 293.518 355.236L294.292 355.524C293.356 356.377 292.713 357.01 291.362 356.94C290.685 356.906 290.025 356.751 289.369 356.587C289.075 354.933 289.049 353.279 288.998 351.604C289.168 351.323 289.383 350.907 289.63 350.673C290.191 350.14 290.726 350.032 291.455 349.97L293.727 349.782Z"/><path fill="#107CEB" transform="matrix(0.160772 0 0 0.160888 -1.52588e-05 0)" d="M299 357.008C298.315 355.932 297.924 354.497 297.986 353.216C298.027 352.376 298.263 351.795 298.895 351.258L299.448 351.595C300.148 352.97 299.887 354.553 299.822 356.056L299.676 357.197L299.276 357.268L299 357.008Z"/><path fill="#107CEB" transform="matrix(0.160772 0 0 0.160888 -1.52588e-05 0)" d="M305.332 350.727C306.063 350.869 306.246 350.854 306.773 351.362C307.302 352.999 307.121 354.647 306.733 356.299C306.001 356.147 305.745 356.153 305.202 355.656C304.632 354.077 304.883 352.311 305.332 350.727Z"/><path fill="#FEFEFE" transform="matrix(0.160772 0 0 0.160888 -1.52588e-05 0)" d="M317.313 352.708C316.806 351.789 316.344 351.316 316.45 350.255C317.057 349.73 317.354 349.442 318.199 349.572C318.884 349.678 319.406 349.941 319.893 350.417C319.659 350.999 319.368 351.369 318.96 351.843L319.019 352.556C319.72 352.975 319.848 352.927 320.676 352.879C321.149 352.198 321.009 351.401 320.987 350.61C321.227 350.278 321.21 350.12 321.636 350.058C323.542 349.781 325.985 349.692 327.852 350.171C327.829 350.907 327.342 351.484 326.957 352.083L327.141 352.591C327.871 352.776 328.047 352.927 328.727 352.629C328.85 351.871 328.997 351.154 329.195 350.412C329.855 349.942 330.223 349.826 331.054 349.959C331.344 350.005 331.412 350.046 331.653 350.147L331.954 350.91C331.19 351.433 331.17 351.442 331.012 352.338C330.746 353.849 331.31 355.251 331.753 356.675C331.218 357.054 330.771 357.205 330.097 357.062C329.691 356.977 329.208 356.721 329.05 356.336C328.884 355.931 328.852 355.653 328.797 355.231C328.72 354.642 328.627 354.377 328.22 353.919C327.548 354.016 327.548 354.045 327.084 354.547C327.067 355.387 327.499 355.971 327.909 356.669C327.305 357.23 323.954 357.05 322.95 357.018C322.058 356.99 321.216 356.975 320.45 356.473C320.562 355.944 320.771 355.578 321.043 355.114C320.925 354.747 320.955 354.514 320.591 354.314C319.962 353.969 319.2 353.921 318.499 353.817C318.046 353.469 317.651 353.174 317.313 352.708Z"/><path fill="#107CEB" transform="matrix(0.160772 0 0 0.160888 -1.52588e-05 0)" d="M323.305 350.66C324.065 350.853 324.216 350.87 324.756 351.425C325.229 353.015 324.934 354.639 324.779 356.265C324.285 356.186 323.899 356.039 323.442 355.838C322.577 354.279 323.084 352.343 323.305 350.66Z"/><path fill="#FEFEFE" transform="matrix(0.160772 0 0 0.160888 -1.52588e-05 0)" d="M266.044 347.029C267.908 346.947 271.974 346.419 273.403 347.82C273.764 348.175 273.6 348.397 273.557 348.853C273.163 349.394 273.15 349.673 272.476 349.83C271.751 348.918 271.186 348.134 270.015 347.903L269.462 348.321C268.835 349.44 269.008 350.667 269.032 351.911C270.503 351.962 271.878 352.075 273.331 352.338C273.732 353.331 274.294 354.598 273.693 355.631C273.202 356.475 272.076 356.888 271.178 357.086C269.712 357.408 267.581 357.464 266.272 356.654C266.471 356.179 266.678 355.698 266.837 355.208C267.499 353.165 267.201 349.171 266.192 347.293C266.144 347.204 266.093 347.117 266.044 347.029Z"/><path fill="#107CEB" transform="matrix(0.160772 0 0 0.160888 -1.52588e-05 0)" d="M269.348 353.312C269.989 352.676 271.017 352.655 271.683 353.264C272.35 353.874 272.421 354.899 271.844 355.594C271.446 356.075 270.815 356.297 270.203 356.173C269.591 356.048 269.097 355.597 268.918 354.998C268.739 354.4 268.905 353.752 269.348 353.312Z"/><path fill="#FEFEFE" transform="matrix(0.160772 0 0 0.160888 -1.52588e-05 0)" d="M287.88 355.973C287.293 356.37 286.64 356.773 285.936 356.923C285.076 357.107 284.484 356.992 283.737 356.527C283.183 355.803 282.92 355.243 282.901 354.313C282.876 353.048 283.345 351.021 284.421 350.207C285.004 349.766 285.674 349.551 286.404 349.688C287.433 349.881 287.942 350.326 288.556 351.11L288.998 351.604C289.049 353.279 289.075 354.933 289.369 356.587C288.769 356.438 288.423 356.256 287.88 355.973Z"/><path fill="#107CEB" transform="matrix(0.160772 0 0 0.160888 -1.52588e-05 0)" d="M287.88 355.973C287.813 355.591 287.878 355.834 287.575 355.286L286.875 355.551C286.125 355.828 286.107 355.939 285.399 355.617C284.819 354.42 284.717 352.61 285.045 351.322L285.62 351.265C286.103 351.527 286.592 351.845 287.143 351.923C287.555 351.982 288.21 351.353 288.556 351.11L288.998 351.604C289.049 353.279 289.075 354.933 289.369 356.587C288.769 356.438 288.423 356.256 287.88 355.973Z"/><path fill="#FEFEFE" transform="matrix(0.160772 0 0 0.160888 -1.52588e-05 0)" d="M309.455 350.28C310.865 350.042 312.906 349.572 314.18 350.459C314.783 350.879 315.101 351.342 315.242 352.063C315.514 353.453 314.753 355.278 313.813 356.276C313.312 356.803 312.592 357.063 311.87 356.979C311.233 356.899 310.415 356.366 310.208 355.737C310.15 355.561 310.137 355.372 310.102 355.19C309.921 355.745 310.039 355.731 309.488 356.041C309.072 355.303 309.1 354.695 309.093 353.877C309.009 352.516 308.886 351.476 308.258 350.248L309.455 350.28Z"/><path fill="#107CEB" transform="matrix(0.160772 0 0 0.160888 -1.52588e-05 0)" d="M308.258 350.248L309.455 350.28L310.003 351.424C311.19 351.757 311.804 350.757 312.861 351.308L313.098 351.979C312.794 352.53 312.45 352.939 312.025 353.402C312.442 354.013 312.822 354.602 313.167 355.259L312.968 355.781C312.373 355.893 312.204 356.034 311.64 355.778C311.13 355.547 310.63 355.37 310.102 355.19C309.921 355.745 310.039 355.731 309.488 356.041C309.072 355.303 309.1 354.695 309.093 353.877C309.009 352.516 308.886 351.476 308.258 350.248Z"/><path fill="#FEFEFE" transform="matrix(0.160772 0 0 0.160888 -1.52588e-05 0)" d="M277.716 350.022C278.857 349.993 281.883 349.633 282.699 350.265C281.627 352.643 282.966 354.806 282.165 356.844C281.398 357.125 281.189 357.038 280.373 356.881C279.837 356.05 279.932 354.981 279.862 353.999C277.978 354.594 278.67 355.945 277.408 356.913C276.507 356.996 275.914 356.99 275.049 356.712L274.982 356.314C275.579 355.767 276.18 355.225 276.785 354.687C277.074 353.571 276.504 352.718 276.073 351.682C276.325 350.835 277.026 350.495 277.716 350.022Z"/><path fill="#FEFEFE" transform="matrix(0.160772 0 0 0.160888 -1.52588e-05 0)" d="M331.954 350.91C333.604 350.182 334.783 349.712 336.565 350.194C337.522 350.906 337.761 351.607 337.934 352.771C338.145 354.19 338.17 355.366 338.814 356.687C338.149 357.258 335.089 357.008 334.158 356.995C333.307 356.795 332.842 356.541 332.119 356.046C331.932 355.464 331.796 355.27 332.092 354.685C332.696 353.492 334.767 352.289 335.866 351.483L335.651 351.008C334.384 351.049 333.595 352.001 332.321 351.895C332.117 351.524 332.021 351.337 331.954 350.91Z"/><path fill="white" transform="matrix(0.160772 0 0 0.160888 -1.52588e-05 0)" d="M270.877 455.064L270.877 452.591Q271.313 412.14 279.316 388.276Q287.465 364.268 302.161 349.571Q317.003 334.729 337.811 322.216Q350.324 314.504 360.219 304.027Q370.113 293.551 375.934 279.873Q381.754 266.05 381.754 249.316Q381.754 228.654 372.005 213.376Q362.401 198.098 346.104 189.949Q329.808 181.655 309.873 181.655Q292.558 181.655 276.406 188.931Q260.255 196.061 249.487 211.484Q238.72 226.908 236.974 251.936L183.718 251.936Q185.464 215.995 202.488 190.386Q219.513 164.776 247.45 151.244Q275.533 137.566 309.873 137.566Q347.123 137.566 374.624 152.408Q402.271 167.25 417.403 193.15Q432.536 218.905 432.536 251.936Q432.536 275.217 425.406 294.133Q418.422 312.903 405.181 327.745Q391.939 342.441 373.314 353.937Q354.689 365.577 343.485 378.382Q332.281 391.187 327.188 408.793Q322.096 426.254 321.659 452.591L321.659 455.064L270.877 455.064ZM297.941 580.347Q282.372 580.347 271.168 569.143Q259.964 557.938 259.964 542.224Q259.964 526.654 271.168 515.45Q282.372 504.246 297.941 504.246Q313.656 504.246 324.86 515.45Q336.064 526.654 336.064 542.224Q336.064 552.7 330.826 561.431Q325.733 570.016 317.148 575.254Q308.563 580.347 297.941 580.347Z"/></svg>